<svg viewBox="0 0 512 512" xml:space="preserve" xmlns="http://www.w3.org/2000/svg">
  <path d="M256 110.46c-93.656 0-169.58 75.923-169.58 169.58L256 322.434l169.58-42.394c0-93.656-75.924-169.58-169.58-169.58z" fill="#ffd485"/>
  <g fill="#ffb833">
    <path d="M277.187 111.765a171.238 171.238 0 0 0-42.394 0v76.404h42.393v-76.404zM122.04 176.044l54.016 54.017 29.976-29.977-54.016-54.016a170.543 170.543 0 0 0-29.977 29.976zM389.94 176.044a170.5 170.5 0 0 0-29.976-29.976l-54.017 54.016 29.977 29.977z"/>
  </g>
  <path fill="#ff832f" d="M52.858 281.14h406.28v107.48H52.858z"/>
</svg>
